# xmcd CD database file
#
# Track frame offsets:
#	150
#	14401
#	29100
#	51069
#	63908
#	82606
#	98060
#	109959
#
# Disc length: 1708 seconds
#
# Revision: 0
# Processed by: cddbd v1.5.2PL0 Copyright (c) Steve Scherf et al.
# Submitted via: CDex 1.51
#
DISCID=5d06aa08
DTITLE=Stewart Mann and The Statesboro Revue - Stewart Mann and The Statesboro Revue
DYEAR=2007
DGENRE=Country
TTITLE0=Lady
TTITLE1=Nickel And Dimes
TTITLE2=Stuck In Here
TTITLE3=Long Black Limousine
TTITLE4=Please Come Home
TTITLE5=Brink Of Heartache
TTITLE6=Distant Land
TTITLE7=Hidden Track
EXTD=YEAR: 2007
EXTT0=
EXTT1=
EXTT2=
EXTT3=
EXTT4=
EXTT5=
EXTT6=
EXTT7=
PLAYORDER=
